<svg width="300" height="300" viewBox="0 0 300 300" fill="none" xmlns="http://www.w3.org/2000/svg">
<path d="M18.965 166V138.093H10.365V134.567H31.435V138.093H22.835V166H18.965ZM35.9332 166L44.1032 134.61H49.3062L57.4332 166H53.5202L51.4562 157.658H41.9532L39.8892 166H35.9332ZM42.7272 154.39H50.6392L48.2312 144.715C47.7725 142.88 47.4142 141.347 47.1562 140.114C46.8982 138.881 46.7405 138.079 46.6832 137.706C46.6259 138.079 46.4682 138.881 46.2102 140.114C45.9522 141.347 45.5939 142.866 45.1352 144.672L42.7272 154.39ZM72.6384 166.43C70.7464 166.43 69.0981 166.072 67.6934 165.355C66.3174 164.638 65.2424 163.606 64.4684 162.259C63.7231 160.883 63.3504 159.263 63.3504 157.4V143.21C63.3504 141.318 63.7231 139.698 64.4684 138.351C65.2424 137.004 66.3174 135.972 67.6934 135.255C69.0981 134.538 70.7464 134.18 72.6384 134.18C74.5304 134.18 76.1644 134.553 77.5404 135.298C78.9164 136.015 79.9771 137.047 80.7224 138.394C81.4677 139.741 81.8404 141.347 81.8404 143.21H77.9704C77.9704 141.433 77.4974 140.071 76.5514 139.125C75.6341 138.15 74.3297 137.663 72.6384 137.663C70.9471 137.663 69.6141 138.136 68.6394 139.082C67.6934 140.028 67.2204 141.39 67.2204 143.167V157.4C67.2204 159.177 67.6934 160.553 68.6394 161.528C69.6141 162.474 70.9471 162.947 72.6384 162.947C74.3297 162.947 75.6341 162.474 76.5514 161.528C77.4974 160.553 77.9704 159.177 77.9704 157.4H81.8404C81.8404 159.235 81.4677 160.84 80.7224 162.216C79.9771 163.563 78.9164 164.61 77.5404 165.355C76.1644 166.072 74.5304 166.43 72.6384 166.43ZM98.2496 166.43C96.3576 166.43 94.7236 166.072 93.3476 165.355C92.0003 164.638 90.9539 163.606 90.2086 162.259C89.4919 160.883 89.1336 159.263 89.1336 157.4V143.21C89.1336 141.318 89.4919 139.698 90.2086 138.351C90.9539 137.004 92.0003 135.972 93.3476 135.255C94.7236 134.538 96.3576 134.18 98.2496 134.18C100.142 134.18 101.761 134.538 103.109 135.255C104.485 135.972 105.531 137.004 106.248 138.351C106.993 139.698 107.366 141.304 107.366 143.167V157.4C107.366 159.263 106.993 160.883 106.248 162.259C105.531 163.606 104.485 164.638 103.109 165.355C101.761 166.072 100.142 166.43 98.2496 166.43ZM98.2496 162.947C99.9409 162.947 101.231 162.474 102.12 161.528C103.037 160.553 103.496 159.177 103.496 157.4V143.21C103.496 141.433 103.037 140.071 102.12 139.125C101.231 138.15 99.9409 137.663 98.2496 137.663C96.5869 137.663 95.2969 138.15 94.3796 139.125C93.4623 140.071 93.0036 141.433 93.0036 143.21V157.4C93.0036 159.177 93.4623 160.553 94.3796 161.528C95.2969 162.474 96.5869 162.947 98.2496 162.947ZM227.338 166.43C225.446 166.43 223.797 166.072 222.393 165.355C221.017 164.638 219.942 163.606 219.168 162.259C218.422 160.883 218.05 159.263 218.05 157.4V143.21C218.05 141.318 218.422 139.698 219.168 138.351C219.942 137.004 221.017 135.972 222.393 135.255C223.797 134.538 225.446 134.18 227.338 134.18C229.23 134.18 230.864 134.553 232.24 135.298C233.616 136.015 234.676 137.047 235.422 138.394C236.167 139.741 236.54 141.347 236.54 143.21H232.67C232.67 141.433 232.197 140.071 231.251 139.125C230.333 138.15 229.029 137.663 227.338 137.663C225.646 137.663 224.313 138.136 223.339 139.082C222.393 140.028 221.92 141.39 221.92 143.167V157.4C221.92 159.177 222.393 160.553 223.339 161.528C224.313 162.474 225.646 162.947 227.338 162.947C229.029 162.947 230.333 162.474 231.251 161.528C232.197 160.553 232.67 159.177 232.67 157.4H236.54C236.54 159.235 236.167 160.84 235.422 162.216C234.676 163.563 233.616 164.61 232.24 165.355C230.864 166.072 229.23 166.43 227.338 166.43ZM242.199 166L250.369 134.61H255.572L263.699 166H259.786L257.722 157.658H248.219L246.155 166H242.199ZM248.993 154.39H256.905L254.497 144.715C254.038 142.88 253.68 141.347 253.422 140.114C253.164 138.881 253.006 138.079 252.949 137.706C252.891 138.079 252.734 138.881 252.476 140.114C252.218 141.347 251.859 142.866 251.401 144.672L248.993 154.39ZM276.797 166V138.093H268.197V134.567H289.267V138.093H280.667V166H276.797Z" fill="black"/>
<path d="M160.438 128.469C160.438 130.5 160.125 132.421 159.501 134.232C158.877 136.044 157.842 137.609 156.397 138.93C154.951 140.25 153.226 140.91 151.222 140.91C148.726 140.91 146.459 139.937 144.422 137.99C142.385 136.044 140.874 133.75 139.888 131.109C138.903 128.469 138.41 125.913 138.41 123.441C138.41 121.41 138.722 119.489 139.346 117.678C139.97 115.867 141.005 114.301 142.451 112.98C143.896 111.66 145.621 111 147.625 111C150.155 111 152.43 111.973 154.45 113.92C156.471 115.867 157.974 118.152 158.959 120.775C159.945 123.399 160.438 125.964 160.438 128.469ZM143.584 152.996C143.584 155.704 142.894 158.057 141.514 160.055C140.135 162.052 138.18 163.051 135.65 163.051C133.153 163.051 130.829 162.111 128.677 160.232C126.525 158.354 124.875 156.094 123.725 153.453C122.575 150.812 122 148.24 122 145.734C122 143.026 122.69 140.665 124.07 138.65C125.45 136.636 127.404 135.629 129.934 135.629C132.431 135.629 134.755 136.568 136.907 138.447C139.059 140.326 140.71 142.594 141.859 145.252C143.009 147.91 143.584 150.491 143.584 152.996ZM163 151.625C166.877 151.625 171.065 153.275 175.566 156.576C180.067 159.877 183.829 163.889 186.851 168.611C189.873 173.334 191.385 177.642 191.385 181.535C191.385 183.092 191.105 184.387 190.547 185.42C189.988 186.452 189.192 187.214 188.157 187.705C187.122 188.196 186.063 188.535 184.978 188.721C183.894 188.907 182.646 189 181.233 189C178.999 189 175.919 188.238 171.993 186.715C168.068 185.191 165.07 184.43 163 184.43C160.832 184.43 157.67 185.183 153.514 186.689C149.358 188.196 146.065 188.949 143.633 188.949C137.621 188.949 134.615 186.478 134.615 181.535C134.615 178.624 135.535 175.382 137.375 171.811C139.215 168.239 141.506 164.98 144.249 162.035C146.993 159.09 150.073 156.618 153.489 154.621C156.906 152.624 160.076 151.625 163 151.625ZM174.778 140.91C172.774 140.91 171.049 140.25 169.603 138.93C168.158 137.609 167.123 136.044 166.499 134.232C165.875 132.421 165.563 130.5 165.563 128.469C165.563 125.964 166.055 123.399 167.041 120.775C168.026 118.152 169.529 115.867 171.55 113.92C173.57 111.973 175.845 111 178.375 111C180.379 111 182.104 111.66 183.549 112.98C184.995 114.301 186.03 115.867 186.654 117.678C187.278 119.489 187.59 121.41 187.59 123.441C187.59 125.913 187.097 128.469 186.112 131.109C185.126 133.75 183.615 136.044 181.578 137.99C179.541 139.937 177.274 140.91 174.778 140.91ZM196.066 135.629C198.596 135.629 200.55 136.636 201.93 138.65C203.31 140.665 204 143.026 204 145.734C204 148.24 203.425 150.812 202.275 153.453C201.125 156.094 199.475 158.354 197.323 160.232C195.171 162.111 192.847 163.051 190.35 163.051C187.82 163.051 185.865 162.052 184.486 160.055C183.106 158.057 182.416 155.704 182.416 152.996C182.416 150.491 182.991 147.91 184.141 145.252C185.29 142.594 186.941 140.326 189.093 138.447C191.245 136.568 193.569 135.629 196.066 135.629Z" fill="#D27C2C"/>
</svg>
